 <svg width="320" height="200" viewBox="0 0 320 200" fill="none" xmlns="http://www.w3.org/2000/svg">
        <rect width="320" height="200" rx="16" fill="#F5F7FA"/>
        <ellipse cx="160" cy="170" rx="120" ry="18" fill="#E0E7EF"/>
        <!-- Desk -->
        <rect x="70" y="150" width="180" height="12" rx="3" fill="#B0BEC5"/>
        <!-- Laptop -->
        <rect x="145" y="120" width="40" height="20" rx="2" fill="#90CAF9"/>
        <rect x="150" y="123" width="30" height="12" rx="1" fill="#E3F2FD"/>
        <!-- Person -->
        <ellipse cx="165" cy="115" rx="10" ry="12" fill="#FFD180"/>
        <rect x="160" y="127" width="10" height="18" rx="3" fill="#90A4AE"/>
        <rect x="155" y="145" width="20" height="7" rx="2" fill="#90A4AE"/>
        <!-- Arms -->
        <rect x="153" y="130" width="5" height="15" rx="2" fill="#FFD180"/>
        <rect x="172" y="130" width="5" height="15" rx="2" fill="#FFD180"/>
        <!-- Book -->
        <rect x="110" y="140" width="18" height="8" rx="1" fill="#FFF59D"/>
        <!-- Plant Pot -->
        <rect x="210" y="140" width="10" height="12" rx="2" fill="#A5D6A7"/>
        <ellipse cx="215" cy="138" rx="7" ry="4" fill="#66BB6A"/>
        <!-- Decorative elements -->
        <ellipse cx="90" cy="160" rx="8" ry="3" fill="#B2DFDB"/>
        <ellipse cx="230" cy="160" rx="8" ry="3" fill="#B2DFDB"/>
</svg>